<?xml version="1.0" encoding="UTF-8"?>
<svg xmlns="http://www.w3.org/2000/svg" viewBox="0 0 1420 545" width="1420" height="545"
     role="img" aria-labelledby="sfTitle sfDesc">
  <title id="sfTitle">The software factory lifecycle</title>
  <desc id="sfDesc">Eight stages in sequence — intake, design, dispatch, execution,
  review, gates, release, reflection — with the four principal artefacts of each.
  Reflection closes the loop by feeding two return paths: new process rules into the
  standing law that constrains dispatch through gates, and new engineering work back
  into the roadmap graph at intake. A tighter loop above the gates stage turns each
  incident into a new mechanical check.</desc>

  <style>
    svg {
      --ground:    #F2F1EE;
      --surface:   #FBFAF8;
      --surface-2: #E8E6E1;
      --ink:       #17191C;
      --ink-2:     #4A4E54;
      --ink-3:     #7C8087;
      --rule:      #D6D3CC;
      --rule-hard: #B6B2A9;
      --accent:    #B87A08;
      --rust:      #9C3A24;
      --steel:     #35636A;

      --display: "Archivo", "Helvetica Neue", Helvetica, Arial, sans-serif;
      --mono: "IBM Plex Mono", ui-monospace, "SF Mono", Menlo, Consolas, "DejaVu Sans Mono", monospace;
    }

    @media (prefers-color-scheme: dark) {
      svg {
        --ground:    #101215;
        --surface:   #181B1F;
        --surface-2: #22262B;
        --ink:       #E9E7E2;
        --ink-2:     #ABAFB5;
        --ink-3:     #767B82;
        --rule:      #2C3137;
        --rule-hard: #414750;
        --accent:    #E5A62F;
        --rust:      #D9705A;
        --steel:     #79B0B4;
      }
    }

    .sf-bg    { fill: var(--surface); stroke: var(--rule); stroke-width: 1; }
    .sf-box   { fill: var(--surface); stroke: var(--rule-hard); stroke-width: 1; }
    .sf-num   { font-family: var(--display); font-weight: 800; font-size: 14px; }
    .sf-ttl   { font-family: var(--display); font-weight: 700; font-size: 15px;
                fill: var(--ink); letter-spacing: -0.01em; }
    .sf-sub   { font-family: var(--mono); font-size: 9.5px; fill: var(--ink-3); }
    .sf-op    { font-family: var(--mono); font-size: 8px; font-weight: 500;
                letter-spacing: 0.03em; }
    .sf-canl  { font-family: var(--display); font-weight: 700; font-size: 9.5px;
                letter-spacing: 0.14em; fill: var(--ink-3); }
    .sf-canv  { font-family: var(--mono); font-size: 11px; fill: var(--ink); }
    .sf-canr  { stroke: var(--rule); stroke-width: 1; }
    .sf-chip  { fill: var(--ground); stroke: var(--rule); stroke-width: 1; }
    .sf-chipt { font-family: var(--mono); font-size: 9.5px; fill: var(--ink-2); }
    .sf-flow  { stroke: var(--ink-3); stroke-width: 1.4; fill: none; }
    .sf-law   { fill: var(--surface-2); stroke: var(--rust); stroke-width: 1; }
    .sf-lawl  { font-family: var(--display); font-weight: 700; font-size: 10px;
                letter-spacing: 0.14em; fill: var(--rust); }
    .sf-lawt  { font-family: var(--mono); font-size: 10px; fill: var(--ink-2); }
    .sf-ret   { fill: none; stroke-width: 1.6; }
    .sf-retl  { font-family: var(--mono); font-size: 10px; font-weight: 500;
                letter-spacing: 0.04em; }
    .sf-legt  { font-family: var(--mono); font-size: 10px; fill: var(--ink-2); }
    .sf-thesis{ font-family: var(--display); font-weight: 700; font-size: 12px; fill: var(--ink); }
    .sf-human { fill: var(--rust); }
    .sf-agent { fill: var(--accent); }
    .sf-mach  { fill: var(--steel); }
    .sf-s-human { stroke: var(--rust); }
    .sf-s-agent { stroke: var(--accent); }
    .sf-s-mach  { stroke: var(--steel); }
    .sf-mk-ink   { fill: var(--ink-3); }
    .sf-mk-agent { fill: var(--accent); }
    .sf-mk-human { fill: var(--rust); }
    .sf-mk-mach  { fill: var(--steel); }
  </style>

  <defs>
    <marker id="sfArrow" viewBox="0 0 8 8" refX="7" refY="4" markerWidth="6" markerHeight="6" orient="auto">
      <path d="M0,0 L8,4 L0,8 z" class="sf-mk-ink"/>
    </marker>
    <marker id="sfArrowA" viewBox="0 0 8 8" refX="7" refY="4" markerWidth="6" markerHeight="6" orient="auto">
      <path d="M0,0 L8,4 L0,8 z" class="sf-mk-agent"/>
    </marker>
    <marker id="sfArrowR" viewBox="0 0 8 8" refX="7" refY="4" markerWidth="6" markerHeight="6" orient="auto">
      <path d="M0,0 L8,4 L0,8 z" class="sf-mk-human"/>
    </marker>
    <marker id="sfArrowM" viewBox="0 0 8 8" refX="7" refY="4" markerWidth="6" markerHeight="6" orient="auto">
      <path d="M0,0 L8,4 L0,8 z" class="sf-mk-mach"/>
    </marker>
  </defs>

  <rect class="sf-bg" x="0.5" y="0.5" width="1419" height="544"/>

  <text x="965" y="34" class="sf-retl sf-mach" text-anchor="middle">incident → new check</text>
  <path d="M 1012 88 C 1012 46, 918 46, 918 86" class="sf-ret sf-s-mach" marker-end="url(#sfArrowM)"/>

  <rect class="sf-box" x="30" y="90" width="150" height="190"/>
  <rect class="sf-human" x="30" y="90" width="150" height="4"/>
  <text x="41" y="115" class="sf-num sf-human">01</text>
  <text x="41" y="137" class="sf-ttl">Intake</text>
  <text x="41" y="152" class="sf-sub">goal → graph</text>
  <text x="41" y="169" class="sf-op sf-human">HUMAN · AGENTS ASSIST</text>
  <rect class="sf-chip" x="40" y="180" width="130" height="17" rx="2"/>
  <text x="46" y="192.5" class="sf-chipt">launch.graph.json</text>
  <rect class="sf-chip" x="40" y="200" width="130" height="17" rx="2"/>
  <text x="46" y="212.5" class="sf-chipt">402 nodes · DAG</text>
  <rect class="sf-chip" x="40" y="220" width="130" height="17" rx="2"/>
  <text x="46" y="232.5" class="sf-chipt">roadmap.py</text>
  <rect class="sf-chip" x="40" y="240" width="130" height="17" rx="2"/>
  <text x="46" y="252.5" class="sf-chipt">node_add.py</text>
  <path d="M 184 180 H 196" class="sf-flow" marker-end="url(#sfArrow)"/>

  <rect class="sf-box" x="202" y="90" width="150" height="190"/>
  <rect class="sf-human" x="202" y="90" width="150" height="4"/>
  <text x="213" y="115" class="sf-num sf-human">02</text>
  <text x="213" y="137" class="sf-ttl">Design</text>
  <text x="213" y="152" class="sf-sub">drafts → decisions</text>
  <text x="213" y="169" class="sf-op sf-human">AGENT DRAFTS · HUMAN OKs</text>
  <rect class="sf-chip" x="212" y="180" width="130" height="17" rx="2"/>
  <text x="218" y="192.5" class="sf-chipt">roadmap_nodes/ ×115</text>
  <rect class="sf-chip" x="212" y="200" width="130" height="17" rx="2"/>
  <text x="218" y="212.5" class="sf-chipt">design.md ×58</text>
  <rect class="sf-chip" x="212" y="220" width="130" height="17" rx="2"/>
  <text x="218" y="232.5" class="sf-chipt">open_questions.md</text>
  <rect class="sf-chip" x="212" y="240" width="130" height="17" rx="2"/>
  <text x="218" y="252.5" class="sf-chipt">decisions.md ×21</text>
  <path d="M 356 180 H 368" class="sf-flow" marker-end="url(#sfArrow)"/>

  <rect class="sf-box" x="374" y="90" width="150" height="190"/>
  <rect class="sf-agent" x="374" y="90" width="150" height="4"/>
  <text x="385" y="115" class="sf-num sf-agent">03</text>
  <text x="385" y="137" class="sf-ttl">Dispatch</text>
  <text x="385" y="152" class="sf-sub">waves → lanes</text>
  <text x="385" y="169" class="sf-op sf-agent">AGENT · GATE: INTERLOCK</text>
  <rect class="sf-chip" x="384" y="180" width="130" height="17" rx="2"/>
  <text x="390" y="192.5" class="sf-chipt">handover/CURRENT.md</text>
  <rect class="sf-chip" x="384" y="200" width="130" height="17" rx="2"/>
  <text x="390" y="212.5" class="sf-chipt">interlock_check.mjs</text>
  <rect class="sf-chip" x="384" y="220" width="130" height="17" rx="2"/>
  <text x="390" y="232.5" class="sf-chipt">worktree per lane</text>
  <rect class="sf-chip" x="384" y="240" width="130" height="17" rx="2"/>
  <text x="390" y="252.5" class="sf-chipt">&lt;database&gt;_test_&lt;lane&gt;</text>
  <path d="M 528 180 H 540" class="sf-flow" marker-end="url(#sfArrow)"/>

  <rect class="sf-box" x="546" y="90" width="150" height="190"/>
  <rect class="sf-agent" x="546" y="90" width="150" height="4"/>
  <text x="557" y="115" class="sf-num sf-agent">04</text>
  <text x="557" y="137" class="sf-ttl">Execution</text>
  <text x="557" y="152" class="sf-sub">1 element = 1 commit</text>
  <text x="557" y="169" class="sf-op sf-agent">AGENT, ISOLATED</text>
  <rect class="sf-chip" x="556" y="180" width="130" height="17" rx="2"/>
  <text x="562" y="192.5" class="sf-chipt">MILESTONES_*.md ×67</text>
  <rect class="sf-chip" x="556" y="200" width="130" height="17" rx="2"/>
  <text x="562" y="212.5" class="sf-chipt">commit + docs</text>
  <rect class="sf-chip" x="556" y="220" width="130" height="17" rx="2"/>
  <text x="562" y="232.5" class="sf-chipt">merge, never squash</text>
  <rect class="sf-chip" x="556" y="240" width="130" height="17" rx="2"/>
  <text x="562" y="252.5" class="sf-chipt">.pi-lens.json</text>
  <path d="M 700 180 H 712" class="sf-flow" marker-end="url(#sfArrow)"/>

  <rect class="sf-box" x="718" y="90" width="150" height="190"/>
  <rect class="sf-agent" x="718" y="90" width="150" height="4"/>
  <text x="729" y="115" class="sf-num sf-agent">05</text>
  <text x="729" y="137" class="sf-ttl">Review</text>
  <text x="729" y="152" class="sf-sub">fresh context</text>
  <text x="729" y="169" class="sf-op sf-agent">AGENT, READ-ONLY</text>
  <rect class="sf-chip" x="728" y="180" width="130" height="17" rx="2"/>
  <text x="734" y="192.5" class="sf-chipt">clean|nits|blockers</text>
  <rect class="sf-chip" x="728" y="200" width="130" height="17" rx="2"/>
  <text x="734" y="212.5" class="sf-chipt">file-only reports</text>
  <rect class="sf-chip" x="728" y="220" width="130" height="17" rx="2"/>
  <text x="734" y="232.5" class="sf-chipt">cross-model on full</text>
  <rect class="sf-chip" x="728" y="240" width="130" height="17" rx="2"/>
  <text x="734" y="252.5" class="sf-chipt">screenshot.mjs</text>
  <path d="M 872 180 H 884" class="sf-flow" marker-end="url(#sfArrow)"/>

  <rect class="sf-box" x="890" y="90" width="150" height="190"/>
  <rect class="sf-mach" x="890" y="90" width="150" height="4"/>
  <text x="901" y="115" class="sf-num sf-mach">06</text>
  <text x="901" y="137" class="sf-ttl">Gates</text>
  <text x="901" y="152" class="sf-sub">rule → command</text>
  <text x="901" y="169" class="sf-op sf-mach">MACHINE, UNCONDITIONAL</text>
  <rect class="sf-chip" x="900" y="180" width="130" height="17" rx="2"/>
  <text x="906" y="192.5" class="sf-chipt">session-preflight.sh</text>
  <rect class="sf-chip" x="900" y="200" width="130" height="17" rx="2"/>
  <text x="906" y="212.5" class="sf-chipt">worktree-build.sh</text>
  <rect class="sf-chip" x="900" y="220" width="130" height="17" rx="2"/>
  <text x="906" y="232.5" class="sf-chipt">wiring-registry.json</text>
  <rect class="sf-chip" x="900" y="240" width="130" height="17" rx="2"/>
  <text x="906" y="252.5" class="sf-chipt">barrel-client-safety</text>
  <path d="M 1044 180 H 1056" class="sf-flow" marker-end="url(#sfArrow)"/>

  <rect class="sf-box" x="1062" y="90" width="150" height="190"/>
  <rect class="sf-human" x="1062" y="90" width="150" height="4"/>
  <text x="1073" y="115" class="sf-num sf-human">07</text>
  <text x="1073" y="137" class="sf-ttl">Release</text>
  <text x="1073" y="152" class="sf-sub">stage → main</text>
  <text x="1073" y="169" class="sf-op sf-human">HUMAN AUTHORISES</text>
  <rect class="sf-chip" x="1072" y="180" width="130" height="17" rx="2"/>
  <text x="1078" y="192.5" class="sf-chipt">changelog ×2 forms</text>
  <rect class="sf-chip" x="1072" y="200" width="130" height="17" rx="2"/>
  <text x="1078" y="212.5" class="sf-chipt">release_checklist.sh</text>
  <rect class="sf-chip" x="1072" y="220" width="130" height="17" rx="2"/>
  <text x="1078" y="232.5" class="sf-chipt">deploy-smoke</text>
  <rect class="sf-chip" x="1072" y="240" width="130" height="17" rx="2"/>
  <text x="1078" y="252.5" class="sf-chipt">tag v&lt;date&gt;</text>
  <path d="M 1216 180 H 1228" class="sf-flow" marker-end="url(#sfArrow)"/>

  <rect class="sf-box" x="1234" y="90" width="150" height="190"/>
  <rect class="sf-human" x="1234" y="90" width="150" height="4"/>
  <text x="1245" y="115" class="sf-num sf-human">08</text>
  <text x="1245" y="137" class="sf-ttl">Reflection</text>
  <text x="1245" y="152" class="sf-sub">rewrite the manual</text>
  <text x="1245" y="169" class="sf-op sf-human">AGENT WRITES · HUMAN OK</text>
  <rect class="sf-chip" x="1244" y="180" width="130" height="17" rx="2"/>
  <text x="1250" y="192.5" class="sf-chipt">proposals.md</text>
  <rect class="sf-chip" x="1244" y="200" width="130" height="17" rx="2"/>
  <text x="1250" y="212.5" class="sf-chipt">reflections.json</text>
  <rect class="sf-chip" x="1244" y="220" width="130" height="17" rx="2"/>
  <text x="1250" y="232.5" class="sf-chipt">verdicts.json ✎</text>
  <rect class="sf-chip" x="1244" y="240" width="130" height="17" rx="2"/>
  <text x="1250" y="252.5" class="sf-chipt">436 props · 88 ✓</text>

  <rect class="sf-law" x="374" y="320" width="666" height="42"/>
  <text x="390" y="336" class="sf-lawl">STANDING LAW</text>
  <text x="390" y="353" class="sf-lawt">AGENTS.md · process_subagent_orchestration.md · runbook_start_dev.md</text>
  <path d="M 449 318 V 290" class="sf-ret sf-s-human" marker-end="url(#sfArrowR)"/>
  <path d="M 621 318 V 290" class="sf-ret sf-s-human" marker-end="url(#sfArrowR)"/>
  <path d="M 793 318 V 290" class="sf-ret sf-s-human" marker-end="url(#sfArrowR)"/>
  <path d="M 965 318 V 290" class="sf-ret sf-s-human" marker-end="url(#sfArrowR)"/>

  <path d="M 1309 284 V 341 H 1052" class="sf-ret sf-s-human" marker-end="url(#sfArrowR)"/>
  <text x="1180" y="333" class="sf-retl sf-human" text-anchor="middle">new rule</text>

  <path d="M 1309 341 V 440 H 105 V 292" class="sf-ret sf-s-agent" marker-end="url(#sfArrowA)"/>
  <text x="700" y="432" class="sf-retl sf-agent" text-anchor="middle">new node → graph.json · the loop closes</text>

  <rect class="sf-human" x="30"  y="478" width="22" height="4"/>
  <text x="60"  y="484" class="sf-legt">human holds authority</text>
  <rect class="sf-agent" x="220" y="478" width="22" height="4"/>
  <text x="250" y="484" class="sf-legt">agent operates</text>
  <rect class="sf-mach" x="380" y="478" width="22" height="4"/>
  <text x="410" y="484" class="sf-legt">machine, unconditional</text>
  <text x="1384" y="484" class="sf-thesis" text-anchor="end">Agents run the floor. The human runs the gates.</text>

  <line x1="30" y1="504" x2="1384" y2="504" class="sf-canr"/>
  <text x="30" y="527">
    <tspan class="sf-canl">THE LAW</tspan>
    <tspan class="sf-canv" dx="12">process_subagent_orchestration.md · 437 lines</tspan>
    <tspan class="sf-canl" dx="46">THE GRAPH</tspan>
    <tspan class="sf-canv" dx="12">launch.graph.json · 402 nodes</tspan>
  </text>
</svg>
